<svg xmlns="http://www.w3.org/2000/svg" xmlns:xlink="http://www.w3.org/1999/xlink" width="1785" zoomAndPan="magnify" viewBox="0 0 1338.75 1073.250007" height="1431" preserveAspectRatio="xMidYMid meet" version="1.0"><defs><filter x="0%" y="0%" width="100%" height="100%" id="fa68e00f7a"><feColorMatrix values="0 0 0 0 1 0 0 0 0 1 0 0 0 0 1 0 0 0 1 0" color-interpolation-filters="sRGB"/></filter><clipPath id="0209c285f8"><path d="M 0.34375 0 L 1338.15625 0 L 1338.15625 1072.5 L 0.34375 1072.5 Z M 0.34375 0 " clip-rule="nonzero"/></clipPath><clipPath id="5fcdc72c0a"><path d="M 2 1 L 1338 1 L 1338 1072.5 L 2 1072.5 Z M 2 1 " clip-rule="nonzero"/></clipPath><mask id="898cb2f88c"><g filter="url(#fa68e00f7a)"><rect x="-133.875" width="1606.5" fill="#000000" y="-107.325001" height="1287.900008" fill-opacity="0.37"/></g></mask><clipPath id="04bc09309f"><path d="M 21 150 L 1225 150 L 1225 768 L 21 768 Z M 21 150 " clip-rule="nonzero"/></clipPath><clipPath id="08962f317e"><path d="M 222.019531 -1 L 1335.882812 339.300781 L 1112.300781 1071.121094 L -1.5625 730.824219 Z M 222.019531 -1 " clip-rule="nonzero"/></clipPath><clipPath id="9f5ff547f4"><path d="M 222.019531 -1 L 1335.882812 339.300781 L 1112.300781 1071.121094 L -1.5625 730.824219 Z M 222.019531 -1 " clip-rule="nonzero"/></clipPath><clipPath id="b736fe9252"><rect x="0" width="1336" y="0" height="1072"/></clipPath><mask id="3f974ef98e"><g filter="url(#fa68e00f7a)"><rect x="-133.875" width="1606.5" fill="#000000" y="-107.325001" height="1287.900008" fill-opacity="0.37"/></g></mask><clipPath id="d7087d68a8"><path d="M 21 150 L 1225 150 L 1225 768 L 21 768 Z M 21 150 " clip-rule="nonzero"/></clipPath><clipPath id="18caa9143a"><path d="M 222.019531 -1 L 1335.882812 339.300781 L 1112.300781 1071.121094 L -1.5625 730.824219 Z M 222.019531 -1 " clip-rule="nonzero"/></clipPath><clipPath id="877ecac24d"><path d="M 222.019531 -1 L 1335.882812 339.300781 L 1112.300781 1071.121094 L -1.5625 730.824219 Z M 222.019531 -1 " clip-rule="nonzero"/></clipPath><clipPath id="e1f7884d64"><rect x="0" width="1336" y="0" height="1072"/></clipPath></defs><g clip-path="url(#0209c285f8)"><path fill="#ffffff" d="M 0.34375 0 L 1338.15625 0 L 1338.15625 1072.5 L 0.34375 1072.5 Z M 0.34375 0 " fill-opacity="1" fill-rule="nonzero"/></g><g clip-path="url(#5fcdc72c0a)"><g mask="url(#898cb2f88c)"><g transform="matrix(1, 0, 0, 1, 2, 1)"><g clip-path="url(#b736fe9252)"><g clip-path="url(#04bc09309f)"><g clip-path="url(#08962f317e)"><g clip-path="url(#9f5ff547f4)"><path fill="#003274" d="M 600.308594 151.75 C 360.128906 161.253906 138.871094 314.859375 54.796875 555.535156 C 33.6875 615.964844 22.800781 677.507812 21.160156 738.242188 L 23.175781 738.175781 C 24.769531 678.320312 35.6875 617.664062 56.839844 558.101562 C 61.445312 545.132812 66.488281 532.445312 71.894531 520.003906 C 114.199219 540.753906 158.066406 559.164062 203.363281 575.167969 C 191.949219 627.539062 186.171875 680.621094 185.53125 733.140625 L 186.988281 733.09375 C 187.609375 680.796875 193.542969 627.976562 205.234375 575.839844 C 242.402344 588.90625 280.546875 600.339844 319.582031 609.976562 C 345.691406 616.421875 371.785156 621.953125 397.886719 626.640625 C 395.789062 659.957031 394.867188 693.382812 395.109375 726.632812 L 395.949219 726.609375 C 395.699219 693.417969 396.628906 660.027344 398.785156 626.78125 C 480.867188 641.46875 562.75 647.570312 643.421875 645.671875 L 648.53125 767.035156 L 645.433594 645.609375 C 724.195312 643.628906 801.8125 634.0625 877.355469 617.410156 C 881.148438 648.167969 883.960938 679.585938 885.707031 711.398438 L 886.546875 711.375 C 884.792969 679.511719 881.984375 648.035156 878.246094 617.214844 C 939.074219 603.757812 998.570312 585.738281 1056.226562 563.414062 C 1068.515625 609.074219 1076.671875 656.742188 1080.289062 705.359375 L 1081.855469 705.308594 C 1078.210938 656.476562 1070.160156 608.597656 1058.050781 562.6875 C 1097.101562 547.496094 1135.328125 530.34375 1172.542969 511.308594 C 1199.59375 570.941406 1216.726562 635.007812 1222.617188 700.941406 L 1224.6875 700.875 C 1204.203125 472.359375 1053.527344 265.726562 822.832031 185.152344 C 764.789062 164.878906 705.753906 154.015625 647.351562 151.738281 C 642.386719 151.425781 637.441406 151.222656 632.492188 151.132812 C 628.714844 150.902344 624.933594 150.898438 621.179688 151.09375 C 620.882812 151.109375 620.585938 151.160156 620.285156 151.175781 C 617.640625 151.226562 614.980469 151.253906 612.339844 151.367188 C 611.820312 151.390625 611.296875 151.449219 610.777344 151.472656 C 607.289062 151.550781 603.792969 151.601562 600.3125 151.742188 Z M 618.410156 161.15625 C 619.921875 161.140625 621.429688 161.132812 622.945312 161.128906 L 626.054688 234.28125 C 588.328125 234.847656 551.105469 232.824219 514.542969 228.390625 C 545.882812 187.554688 581.375 164.199219 618.410156 161.15625 Z M 632.96875 161.152344 C 633.882812 161.164062 634.800781 161.21875 635.714844 161.234375 C 661.128906 163.5 687.058594 175.285156 712.730469 197.652344 C 721.832031 205.582031 730.632812 214.65625 739.160156 224.722656 C 706.472656 229.769531 673.160156 232.929688 639.320312 233.980469 C 637.824219 234.027344 636.339844 234.027344 634.84375 234.066406 L 632.972656 161.152344 Z M 574.011719 165.054688 C 550.722656 177.765625 528.542969 198.867188 508.246094 227.578125 C 485.085938 224.585938 462.175781 220.601562 439.613281 215.707031 C 481.773438 189.707031 527.121094 172.492188 574.011719 165.054688 Z M 679.34375 164.972656 C 712.292969 170.144531 745.371094 180.25 778.074219 195.621094 C 788.152344 200.359375 798.007812 205.546875 807.675781 211.109375 C 787.246094 216.085938 766.507812 220.328125 745.515625 223.738281 C 735.066406 210.390625 724.125 198.609375 712.785156 188.574219 C 701.667969 178.738281 690.503906 170.898438 679.347656 164.972656 Z M 509.660156 172.035156 C 481.679688 182.257812 454.550781 196.074219 428.730469 213.300781 C 418.070312 210.835938 407.515625 208.144531 397.007812 205.269531 C 433.257812 190.65625 470.996094 179.488281 509.660156 172.035156 Z M 749.183594 174.117188 C 773.660156 179.265625 798.085938 185.917969 822.328125 194.246094 C 829.234375 196.621094 836.074219 199.136719 842.835938 201.730469 C 834.707031 204.101562 826.519531 206.363281 818.292969 208.484375 C 805.367188 200.425781 792.035156 193.074219 778.355469 186.539062 C 768.667969 181.914062 758.925781 177.816406 749.183594 174.117188 Z M 385.613281 209.988281 C 397.074219 213.289062 408.632812 216.351562 420.285156 219.160156 C 390.449219 240.152344 362.40625 265.710938 336.800781 295.449219 C 315.855469 288.183594 295.269531 280.1875 275.074219 271.492188 C 309.664062 247.207031 346.738281 226.582031 385.613281 209.988281 Z M 854.5 206.347656 C 900.957031 225.269531 943.792969 249.363281 982.605469 277.746094 C 963.296875 285.699219 943.65625 293.046875 923.757812 299.675781 C 894.832031 266.332031 862.503906 237.441406 827.132812 214.140625 C 836.316406 211.691406 845.449219 209.105469 854.5 206.347656 Z M 430.375 221.585938 C 430.386719 221.578125 430.414062 221.59375 430.429688 221.585938 C 454.371094 227.035156 478.699219 231.417969 503.359375 234.722656 C 486.171875 260.453125 470.402344 291.730469 456.527344 328.015625 C 417.566406 320.203125 379.566406 309.960938 342.679688 297.449219 C 369.574219 267.546875 399.019531 242.109375 430.371094 221.585938 Z M 817.179688 216.742188 C 854.257812 239.410156 888.144531 268.035156 918.375 301.46875 C 881.855469 313.382812 844.402344 322.964844 806.199219 330.207031 C 789.753906 291.855469 771.191406 258.238281 750.75 230.679688 C 773.222656 226.921875 795.386719 222.269531 817.179688 216.742188 Z M 509.304688 235.484375 C 547.585938 240.332031 586.65625 242.542969 626.320312 241.929688 L 630.726562 346.011719 C 601.566406 345.789062 572.152344 344.210938 542.542969 341.132812 C 514.464844 338.214844 486.800781 333.996094 459.609375 328.640625 C 474.308594 291.96875 491.082031 260.738281 509.300781 235.484375 Z M 744.828125 231.585938 C 766.371094 258.566406 785.914062 292.136719 803.183594 330.800781 C 749.324219 340.816406 694.007812 346.015625 637.667969 346.019531 L 634.992188 241.714844 C 636.46875 241.675781 637.933594 241.679688 639.414062 241.632812 C 675.207031 240.523438 710.378906 237.085938 744.832031 231.585938 Z M 271.105469 274.296875 C 291.746094 283.058594 312.816406 291.078125 334.238281 298.375 C 304.292969 333.703125 277.796875 374.808594 255.667969 420.992188 C 222.261719 408.789062 189.667969 394.933594 157.949219 379.5625 C 191.128906 339.414062 229.269531 304.171875 271.105469 274.296875 Z M 985.6875 280 C 1022.890625 307.578125 1056.289062 339.105469 1085.535156 373.726562 C 1057.648438 387.746094 1029.054688 400.53125 999.867188 412.058594 C 978.6875 371.804688 953.855469 334.769531 925.722656 301.964844 C 945.992188 295.300781 966.015625 288.007812 985.6875 280 Z M 340.074219 300.328125 C 377.457031 312.789062 415.972656 323.007812 455.484375 330.738281 C 440.59375 370.203125 427.9375 415.480469 418.070312 465.910156 C 363.355469 455.425781 310.203125 440.738281 258.902344 422.1875 C 281.738281 376.070312 309.171875 335.234375 340.074219 300.328125 Z M 920.40625 303.703125 C 949.421875 336.171875 974.984375 373.066406 996.777344 413.277344 C 949.042969 431.957031 899.699219 447.25 849.003906 458.804688 C 837.332031 413.023438 823.292969 370.457031 807.167969 332.476562 C 845.734375 325.253906 883.523438 315.585938 920.402344 303.703125 Z M 458.582031 331.3125 C 484.996094 336.390625 511.835938 340.429688 539.089844 343.261719 C 569.914062 346.464844 600.503906 348.070312 630.859375 348.25 L 636.605469 484.605469 C 611.648438 485.0625 586.511719 484.644531 561.1875 483.304688 C 513.078125 480.757812 465.824219 474.957031 419.703125 466.195312 C 429.960938 415.664062 443.105469 370.457031 458.578125 331.3125 Z M 804.210938 333.011719 C 820.890625 370.734375 835.402344 413.253906 847.4375 459.128906 C 780.769531 474.210938 711.808594 482.910156 641.25 484.515625 L 637.746094 348.261719 C 694.367188 348.183594 750.03125 342.980469 804.210938 333.011719 Z M 154.398438 383.992188 C 186.59375 399.320312 219.699219 413.148438 253.625 425.265625 C 235.542969 463.742188 220.484375 505.683594 209.082031 550.746094 C 207.335938 557.640625 205.722656 564.53125 204.179688 571.449219 C 159.242188 555.28125 115.71875 536.597656 73.757812 515.636719 C 95.121094 467.542969 122.410156 423.46875 154.398438 383.992188 Z M 1088.101562 376.726562 C 1120.957031 416.140625 1148.390625 459.523438 1169.890625 505.621094 C 1133.085938 524.835938 1095.273438 542.132812 1056.640625 557.519531 C 1042.972656 507.125 1024.429688 459.140625 1001.480469 414.972656 C 1030.984375 403.484375 1059.898438 390.703125 1088.101562 376.726562 Z M 256.855469 426.382812 C 308.582031 444.667969 362.210938 459.09375 417.398438 469.335938 C 412.789062 493.3125 408.796875 518.429688 405.511719 544.632812 C 402.238281 570.757812 399.777344 597.144531 398.050781 623.601562 C 373.539062 619.136719 349.007812 613.851562 324.480469 607.796875 C 284.023438 597.808594 244.554688 585.867188 206.109375 572.105469 C 207.546875 565.839844 209.015625 559.558594 210.621094 553.316406 C 222.382812 507.617188 238.015625 465.171875 256.855469 426.382812 Z M 998.382812 416.230469 C 1021.878906 460.140625 1040.882812 507.933594 1054.816406 558.234375 C 997.453125 580.976562 938.28125 599.394531 877.710938 613.179688 C 871.109375 560.054688 861.667969 508.984375 849.644531 461.339844 C 900.636719 449.84375 950.320312 434.773438 998.382812 416.230469 Z M 418.96875 469.617188 C 464.101562 477.921875 510.238281 483.441406 557.292969 485.929688 C 583.945312 487.339844 610.417969 487.695312 636.683594 487.160156 L 643.25 642.640625 C 562.714844 644.703125 480.9375 638.613281 398.953125 623.738281 C 400.675781 598.101562 403.144531 572.558594 406.378906 547.238281 C 409.839844 520.160156 414.058594 494.273438 418.976562 469.621094 Z M 848.078125 461.671875 C 860.414062 509.175781 870.089844 560.230469 876.8125 613.382812 C 801.4375 630.476562 723.976562 640.425781 645.320312 642.578125 L 641.332031 487.074219 C 712.03125 485.332031 781.1875 476.644531 848.085938 461.671875 Z M 848.078125 461.671875 " fill-opacity="1" fill-rule="nonzero"/></g></g></g></g></g></g><g mask="url(#3f974ef98e)"><g transform="matrix(1, 0, 0, 1, 2, 1)"><g clip-path="url(#e1f7884d64)"><g clip-path="url(#d7087d68a8)"><g clip-path="url(#18caa9143a)"><g clip-path="url(#877ecac24d)"><path fill="#003274" d="M 600.308594 151.75 C 360.128906 161.253906 138.871094 314.859375 54.796875 555.535156 C 33.6875 615.964844 22.800781 677.507812 21.160156 738.242188 L 23.175781 738.175781 C 24.769531 678.320312 35.6875 617.664062 56.839844 558.101562 C 61.445312 545.132812 66.488281 532.445312 71.894531 520.003906 C 114.199219 540.753906 158.066406 559.164062 203.363281 575.167969 C 191.949219 627.539062 186.171875 680.621094 185.53125 733.140625 L 186.988281 733.09375 C 187.609375 680.796875 193.542969 627.976562 205.234375 575.839844 C 242.402344 588.90625 280.546875 600.339844 319.582031 609.976562 C 345.691406 616.421875 371.785156 621.953125 397.886719 626.640625 C 395.789062 659.957031 394.867188 693.382812 395.109375 726.632812 L 395.949219 726.609375 C 395.699219 693.417969 396.628906 660.027344 398.785156 626.78125 C 480.867188 641.46875 562.75 647.570312 643.421875 645.671875 L 648.53125 767.035156 L 645.433594 645.609375 C 724.195312 643.628906 801.8125 634.0625 877.355469 617.410156 C 881.148438 648.167969 883.960938 679.585938 885.707031 711.398438 L 886.546875 711.375 C 884.792969 679.511719 881.984375 648.035156 878.246094 617.214844 C 939.074219 603.757812 998.570312 585.738281 1056.226562 563.414062 C 1068.515625 609.074219 1076.671875 656.742188 1080.289062 705.359375 L 1081.855469 705.308594 C 1078.210938 656.476562 1070.160156 608.597656 1058.050781 562.6875 C 1097.101562 547.496094 1135.328125 530.34375 1172.542969 511.308594 C 1199.59375 570.941406 1216.726562 635.007812 1222.617188 700.941406 L 1224.6875 700.875 C 1204.203125 472.359375 1053.527344 265.726562 822.832031 185.152344 C 764.789062 164.878906 705.753906 154.015625 647.351562 151.738281 C 642.386719 151.425781 637.441406 151.222656 632.492188 151.132812 C 628.714844 150.902344 624.933594 150.898438 621.179688 151.09375 C 620.882812 151.109375 620.585938 151.160156 620.285156 151.175781 C 617.640625 151.226562 614.980469 151.253906 612.339844 151.367188 C 611.820312 151.390625 611.296875 151.449219 610.777344 151.472656 C 607.289062 151.550781 603.792969 151.601562 600.3125 151.742188 Z M 618.410156 161.15625 C 619.921875 161.140625 621.429688 161.132812 622.945312 161.128906 L 626.054688 234.28125 C 588.328125 234.847656 551.105469 232.824219 514.542969 228.390625 C 545.882812 187.554688 581.375 164.199219 618.410156 161.15625 Z M 632.96875 161.152344 C 633.882812 161.164062 634.800781 161.21875 635.714844 161.234375 C 661.128906 163.5 687.058594 175.285156 712.730469 197.652344 C 721.832031 205.582031 730.632812 214.65625 739.160156 224.722656 C 706.472656 229.769531 673.160156 232.929688 639.320312 233.980469 C 637.824219 234.027344 636.339844 234.027344 634.84375 234.066406 L 632.972656 161.152344 Z M 574.011719 165.054688 C 550.722656 177.765625 528.542969 198.867188 508.246094 227.578125 C 485.085938 224.585938 462.175781 220.601562 439.613281 215.707031 C 481.773438 189.707031 527.121094 172.492188 574.011719 165.054688 Z M 679.34375 164.972656 C 712.292969 170.144531 745.371094 180.25 778.074219 195.621094 C 788.152344 200.359375 798.007812 205.546875 807.675781 211.109375 C 787.246094 216.085938 766.507812 220.328125 745.515625 223.738281 C 735.066406 210.390625 724.125 198.609375 712.785156 188.574219 C 701.667969 178.738281 690.503906 170.898438 679.347656 164.972656 Z M 509.660156 172.035156 C 481.679688 182.257812 454.550781 196.074219 428.730469 213.300781 C 418.070312 210.835938 407.515625 208.144531 397.007812 205.269531 C 433.257812 190.65625 470.996094 179.488281 509.660156 172.035156 Z M 749.183594 174.117188 C 773.660156 179.265625 798.085938 185.917969 822.328125 194.246094 C 829.234375 196.621094 836.074219 199.136719 842.835938 201.730469 C 834.707031 204.101562 826.519531 206.363281 818.292969 208.484375 C 805.367188 200.425781 792.035156 193.074219 778.355469 186.539062 C 768.667969 181.914062 758.925781 177.816406 749.183594 174.117188 Z M 385.613281 209.988281 C 397.074219 213.289062 408.632812 216.351562 420.285156 219.160156 C 390.449219 240.152344 362.40625 265.710938 336.800781 295.449219 C 315.855469 288.183594 295.269531 280.1875 275.074219 271.492188 C 309.664062 247.207031 346.738281 226.582031 385.613281 209.988281 Z M 854.5 206.347656 C 900.957031 225.269531 943.792969 249.363281 982.605469 277.746094 C 963.296875 285.699219 943.65625 293.046875 923.757812 299.675781 C 894.832031 266.332031 862.503906 237.441406 827.132812 214.140625 C 836.316406 211.691406 845.449219 209.105469 854.5 206.347656 Z M 430.375 221.585938 C 430.386719 221.578125 430.414062 221.59375 430.429688 221.585938 C 454.371094 227.035156 478.699219 231.417969 503.359375 234.722656 C 486.171875 260.453125 470.402344 291.730469 456.527344 328.015625 C 417.566406 320.203125 379.566406 309.960938 342.679688 297.449219 C 369.574219 267.546875 399.019531 242.109375 430.371094 221.585938 Z M 817.179688 216.742188 C 854.257812 239.410156 888.144531 268.035156 918.375 301.46875 C 881.855469 313.382812 844.402344 322.964844 806.199219 330.207031 C 789.753906 291.855469 771.191406 258.238281 750.75 230.679688 C 773.222656 226.921875 795.386719 222.269531 817.179688 216.742188 Z M 509.304688 235.484375 C 547.585938 240.332031 586.65625 242.542969 626.320312 241.929688 L 630.726562 346.011719 C 601.566406 345.789062 572.152344 344.210938 542.542969 341.132812 C 514.464844 338.214844 486.800781 333.996094 459.609375 328.640625 C 474.308594 291.96875 491.082031 260.738281 509.300781 235.484375 Z M 744.828125 231.585938 C 766.371094 258.566406 785.914062 292.136719 803.183594 330.800781 C 749.324219 340.816406 694.007812 346.015625 637.667969 346.019531 L 634.992188 241.714844 C 636.46875 241.675781 637.933594 241.679688 639.414062 241.632812 C 675.207031 240.523438 710.378906 237.085938 744.832031 231.585938 Z M 271.105469 274.296875 C 291.746094 283.058594 312.816406 291.078125 334.238281 298.375 C 304.292969 333.703125 277.796875 374.808594 255.667969 420.992188 C 222.261719 408.789062 189.667969 394.933594 157.949219 379.5625 C 191.128906 339.414062 229.269531 304.171875 271.105469 274.296875 Z M 985.6875 280 C 1022.890625 307.578125 1056.289062 339.105469 1085.535156 373.726562 C 1057.648438 387.746094 1029.054688 400.53125 999.867188 412.058594 C 978.6875 371.804688 953.855469 334.769531 925.722656 301.964844 C 945.992188 295.300781 966.015625 288.007812 985.6875 280 Z M 340.074219 300.328125 C 377.457031 312.789062 415.972656 323.007812 455.484375 330.738281 C 440.59375 370.203125 427.9375 415.480469 418.070312 465.910156 C 363.355469 455.425781 310.203125 440.738281 258.902344 422.1875 C 281.738281 376.070312 309.171875 335.234375 340.074219 300.328125 Z M 920.40625 303.703125 C 949.421875 336.171875 974.984375 373.066406 996.777344 413.277344 C 949.042969 431.957031 899.699219 447.25 849.003906 458.804688 C 837.332031 413.023438 823.292969 370.457031 807.167969 332.476562 C 845.734375 325.253906 883.523438 315.585938 920.402344 303.703125 Z M 458.582031 331.3125 C 484.996094 336.390625 511.835938 340.429688 539.089844 343.261719 C 569.914062 346.464844 600.503906 348.070312 630.859375 348.25 L 636.605469 484.605469 C 611.648438 485.0625 586.511719 484.644531 561.1875 483.304688 C 513.078125 480.757812 465.824219 474.957031 419.703125 466.195312 C 429.960938 415.664062 443.105469 370.457031 458.578125 331.3125 Z M 804.210938 333.011719 C 820.890625 370.734375 835.402344 413.253906 847.4375 459.128906 C 780.769531 474.210938 711.808594 482.910156 641.25 484.515625 L 637.746094 348.261719 C 694.367188 348.183594 750.03125 342.980469 804.210938 333.011719 Z M 154.398438 383.992188 C 186.59375 399.320312 219.699219 413.148438 253.625 425.265625 C 235.542969 463.742188 220.484375 505.683594 209.082031 550.746094 C 207.335938 557.640625 205.722656 564.53125 204.179688 571.449219 C 159.242188 555.28125 115.71875 536.597656 73.757812 515.636719 C 95.121094 467.542969 122.410156 423.46875 154.398438 383.992188 Z M 1088.101562 376.726562 C 1120.957031 416.140625 1148.390625 459.523438 1169.890625 505.621094 C 1133.085938 524.835938 1095.273438 542.132812 1056.640625 557.519531 C 1042.972656 507.125 1024.429688 459.140625 1001.480469 414.972656 C 1030.984375 403.484375 1059.898438 390.703125 1088.101562 376.726562 Z M 256.855469 426.382812 C 308.582031 444.667969 362.210938 459.09375 417.398438 469.335938 C 412.789062 493.3125 408.796875 518.429688 405.511719 544.632812 C 402.238281 570.757812 399.777344 597.144531 398.050781 623.601562 C 373.539062 619.136719 349.007812 613.851562 324.480469 607.796875 C 284.023438 597.808594 244.554688 585.867188 206.109375 572.105469 C 207.546875 565.839844 209.015625 559.558594 210.621094 553.316406 C 222.382812 507.617188 238.015625 465.171875 256.855469 426.382812 Z M 998.382812 416.230469 C 1021.878906 460.140625 1040.882812 507.933594 1054.816406 558.234375 C 997.453125 580.976562 938.28125 599.394531 877.710938 613.179688 C 871.109375 560.054688 861.667969 508.984375 849.644531 461.339844 C 900.636719 449.84375 950.320312 434.773438 998.382812 416.230469 Z M 418.96875 469.617188 C 464.101562 477.921875 510.238281 483.441406 557.292969 485.929688 C 583.945312 487.339844 610.417969 487.695312 636.683594 487.160156 L 643.25 642.640625 C 562.714844 644.703125 480.9375 638.613281 398.953125 623.738281 C 400.675781 598.101562 403.144531 572.558594 406.378906 547.238281 C 409.839844 520.160156 414.058594 494.273438 418.976562 469.621094 Z M 848.078125 461.671875 C 860.414062 509.175781 870.089844 560.230469 876.8125 613.382812 C 801.4375 630.476562 723.976562 640.425781 645.320312 642.578125 L 641.332031 487.074219 C 712.03125 485.332031 781.1875 476.644531 848.085938 461.671875 Z M 848.078125 461.671875 " fill-opacity="1" fill-rule="nonzero"/></g></g></g></g></g></g></g></svg>